HIERARCHY
ROOT Hips
{
  OFFSET 0 0 0
  CHANNELS 6 Xposition Yposition Zposition Zrotation Xrotation Yrotation
  JOINT Spine
  {
    OFFSET 0 10 0
    CHANNELS 3 Zrotation Xrotation Yrotation
    JOINT Neck
    {
      OFFSET 0 30 0
      CHANNELS 3 Zrotation Xrotation Yrotation
      JOINT Head
      {
        OFFSET 0 8 0
        CHANNELS 3 Zrotation Xrotation Yrotation
        End Site
        {
          OFFSET 0 10 0
        }
      }
    }
    JOINT LeftArm
    {
      OFFSET 15 30 0
      CHANNELS 3 Zrotation Xrotation Yrotation
      JOINT LeftForeArm
      {
        OFFSET 25 0 0
        CHANNELS 3 Zrotation Xrotation Yrotation
        JOINT LeftHand
        {
          OFFSET 25 0 0
          CHANNELS 3 Zrotation Xrotation Yrotation
          End Site
          {
            OFFSET 10 0 0
          }
        }
      }
    }
    JOINT RightArm
    {
      OFFSET -15 30 0
      CHANNELS 3 Zrotation Xrotation Yrotation
      JOINT RightForeArm
      {
        OFFSET -25 0 0
        CHANNELS 3 Zrotation Xrotation Yrotation
        JOINT RightHand
        {
          OFFSET -25 0 0
          CHANNELS 3 Zrotation Xrotation Yrotation
          End Site
          {
            OFFSET -10 0 0
          }
        }
      }
    }
  }
  JOINT LeftUpLeg
  {
    OFFSET 10 -10 0
    CHANNELS 3 Zrotation Xrotation Yrotation
    JOINT LeftLeg
    {
      OFFSET 0 -35 0
      CHANNELS 3 Zrotation Xrotation Yrotation
      JOINT LeftToe
      {
        OFFSET 0 -40 0
        CHANNELS 3 Zrotation Xrotation Yrotation
        JOINT LeftToeEnd
        {
          OFFSET 0 0 0
          CHANNELS 3 Zrotation Xrotation Yrotation
          End Site
          {
            OFFSET 0 0 15
          }
        }
      }
    }
  }
  JOINT RightUpLeg
  {
    OFFSET -10 -10 0
    CHANNELS 3 Zrotation Xrotation Yrotation
    JOINT RightLeg
    {
      OFFSET 0 -35 0
      CHANNELS 3 Zrotation Xrotation Yrotation
      JOINT RightToe
      {
        OFFSET 0 -40 0
        CHANNELS 3 Zrotation Xrotation Yrotation
        JOINT RightToeEnd
        {
          OFFSET 0 0 0
          CHANNELS 3 Zrotation Xrotation Yrotation
          End Site
          {
            OFFSET 0 0 15
          }
        }
      }
    }
  }
}
MOTION
Frames:	11
Frame Time:	0.0333333
127.774 84.2635 -15.1125 -163.066 28.4606 157.512 -0.000104029 -6.74068e-006 -4.02359e-007 -1.02005 -4.84357 -7.32949 1.97253 -24.5278 -18.7398 14.7397 -54.1108 -52.6281 -0.215259 0.88514 -53.1162 93.654 22.7767 -25.2743 23.6727 -41.271 73.7808 0.781762 1.29731 31.7951 -106.185 0.706788 4.91853 43.7383 -4.59381 36.4495 -6.08964 36.5865 -0.938706 2.55287 14.3928 -0.753316 6.95746e-016 -3.97569e-016 -1.27222e-014 -56.6638 -53.8136 -59.6048 -0.378071 8.1131 0.579483 5.43418 19.6185 -2.14009 9.54166e-015 1.59028e-015 3.57812e-015 
123.706 85.2559 -15.197 -157.533 30.2324 153.949 -0.000104029 -6.74068e-006 -4.02359e-007 0.429535 -0.910451 -6.82401 0.917459 -23.7229 -20.0878 14.6594 -53.4022 -60.9012 0.018667 0.639433 -37.3896 87.8002 13.281 -25.4183 24.1986 -38.0952 73.9879 0.740926 1.14579 28.9308 -106.057 1.09368 3.38476 36.3694 3.48842 32.5712 -4.61606 29.3177 -1.99484 1.30808 18.4565 -0.557505 4.41391e-032 7.95139e-016 -3.18055e-015 -80.8111 -60.0661 -79.5712 -0.949994 13.9238 0.495279 3.76839 12.1712 -0.746724 -3.18055e-015 2.38542e-015 -0 
119.272 85.6732 -15.6308 -149.72 31.9007 150.338 -0.000104029 -6.74068e-006 -4.02359e-007 2.92966 2.83595 -6.6915 -0.486445 -22.1631 -21.4279 14.7454 -51.9977 -64.3895 0.266985 0.575455 -31.0312 75.5149 10.0428 -31.5433 25.0777 -34.7662 72.8611 0.653171 0.937073 25.9705 -105.523 1.89531 1.92935 31.836 11.0223 28.0073 -3.42563 22.5828 -2.64517 0.641115 21.867 -1.611 -7.95139e-016 0 -1.59028e-015 -106.532 -60.7122 -102.622 -2.25806 23.1293 0.55667 2.58958 4.09907 -1.42089 -0 -3.18055e-015 -0 
114.692 85.2029 -16.1677 -140.447 32.8665 146.636 -0.000104029 -6.74068e-006 -4.02359e-007 7.90477 6.43862 -7.0577 -2.67436 -20.5756 -22.9778 17.6952 -49.6492 -58.0503 0.269412 0.69602 -45.5666 56.1376 7.51694 -28.5588 27.4809 -31.3565 69.6976 0.623918 0.889601 26.4755 -105.164 4.33383 1.41326 29.4313 16.3159 22.9269 -2.77535 18.5883 -2.91709 1.15523 23.8355 -2.67607 1.39149e-015 0 -1.59028e-015 -124.93 -57.3251 -118.639 -3.92092 31.998 0.977224 -0.764949 -3.71676 -5.69747 -6.36111e-015 1.59028e-015 9.54166e-015 
110.309 83.9941 -16.6214 -130.757 32.8956 142.434 -0.000104029 -6.74068e-006 -4.02359e-007 13.9427 9.21921 -6.87755 -5.32743 -18.9087 -24.2766 23.4395 -48.4929 -45.5952 0.421083 0.793731 -59.4704 36.9866 -1.1898 -23.3434 31.0907 -28.0807 64.3706 0.654461 0.9855 30.0713 -104.963 7.08312 1.8278 28.543 18.1669 17.5875 -2.82953 18.9069 -2.77141 2.05507 23.6075 -2.85395 9.93923e-016 0 1.19271e-015 -135.088 -54.4635 -126.91 -5.72841 36.1967 1.76894 -5.77133 -7.4844 -10.7822 -7.95139e-015 0 -3.18055e-015 
106.337 82.2304 -16.6744 -121.417 31.9873 137.097 -0.000104029 -6.74068e-006 -4.02359e-007 19.2518 10.7374 -6.00735 -7.47605 -16.2106 -25.149 30.7503 -40.9457 -28.2176 0.631275 0.835169 -74.3437 36.9552 -2.63326 -21.709 36.8966 -23.8486 61.1584 0.712815 1.18182 33.1385 -105.617 9.15185 2.24178 26.2106 16.3776 13.0188 -3.56869 23.3597 -2.21761 2.61246 21.298 -2.53497 5.96354e-015 -1.59028e-015 1.59028e-015 -139.716 -54.002 -129.675 -5.762 35.783 1.80294 -8.79848 -7.35406 -12.2994 -2.38542e-015 5.56597e-015 -6.36111e-015 
102.701 80.1392 -16.5647 -110.904 30.124 130.47 -0.000104029 -6.74068e-006 -4.02359e-007 23.9531 12.7215 -4.96089 -6.73844 -12.5321 -25.2561 35.9648 -33.2669 -14.3485 0.622151 0.840563 -84.043 35.2102 -4.44663 -20.3987 43.7689 -19.1294 58.0175 0.763495 1.31148 33.6787 -105.727 9.06315 1.70365 24.1314 12.7829 10.7309 -4.69581 29.6084 -1.29729 1.93013 17.5748 -3.31666 -1.59028e-015 3.18055e-015 3.18055e-015 -141.539 -55.7217 -133.288 -7.28583 41.8385 1.27034 -6.06337 -16.5996 -11.3443 -3.97569e-016 -7.95139e-016 9.54166e-015 
99.0604 78.0415 -16.4858 -101.782 27.8573 125.556 -0.000104029 -6.74068e-006 -4.02359e-007 24.424 12.7142 -2.47316 -4.85478 -7.06966 -25.9355 36.5565 -28.5088 -3.60121 0.825739 0.807796 -89.1544 33.5487 -5.15831 -19.9239 47.6282 -16.2437 54.9066 0.765498 1.2983 33.0449 -104.557 9.59424 0.180022 20.912 6.20177 12.0919 -6.42007 37.8349 0.0122903 0.721424 13.0589 -2.75519 -9.54166e-015 4.77083e-015 -3.18055e-015 -138.308 -58.7158 -132.756 -8.14153 45.8069 2.14376 -4.75501 -25.9068 -10.0793 -5.96354e-016 4.47266e-016 -0 
95.5372 76.5683 -16.4116 -95.0566 24.8413 122.15 -0.000104029 -6.74068e-006 -4.02359e-007 24.4969 12.2834 0.516745 -4.24798 -4.13623 -26.7932 36.2397 -26.9869 6.42085 0.842761 0.789476 -91.3801 32.5263 -6.59873 -19.0197 51.0203 -14.3342 53.6565 0.733174 1.13989 29.3465 -103.379 7.88225 -3.235 16.5306 -3.50119 17.5686 -7.97329 43.9382 1.3318 -0.118854 9.15344 -2.23231 7.95139e-015 -7.95139e-016 9.54166e-015 -136.541 -61.2067 -134.098 -8.82652 48.6708 3.162 -4.61314 -31.1847 -10.4112 7.45443e-017 -4.03781e-016 -0 
92.1273 75.9933 -16.0535 -89.6712 21.4439 119.777 -0.000104029 -6.74068e-006 -4.02359e-007 24.49 12.3401 2.81162 -4.93158 -5.14421 -26.3318 35.126 -28.2596 16.4319 0.847857 0.773822 -92.7678 32.29 -9.49926 -17.465 52.733 -13.9622 57.0889 0.591638 0.722651 17.3461 -100.317 2.53491 -8.77673 11.7755 -12.8588 26.0041 -8.68434 46.3822 2.03207 -1.94087 6.50297 -1.97241 -3.18055e-015 -7.95139e-015 6.36111e-015 -137.145 -62.7087 -138.061 -10.0759 52.8107 4.29727 -5.85085 -32.2095 -12.146 2.48282e-032 -1.49089e-016 9.54166e-015 
88.899 76.4293 -15.8978 -83.4324 18.3578 118.713 -0.000104029 -6.74068e-006 -4.02359e-007 26.5214 14.6934 3.01873 -7.26233 -7.57935 -25.5801 32.6015 -29.4618 22.8286 0.873283 0.758436 -95.1709 32.3329 -10.7038 -16.6322 54.4163 -14.3144 53.9299 0.459077 0.539334 15.7433 -91.6186 0.902883 -13.8486 6.11061 -18.4165 34.7407 -7.47586 42.1683 1.34709 -7.28115 4.44891 -3.71817 1.41245e-030 6.36111e-015 -1.27222e-014 -136.357 -62.8809 -139.987 -12.1614 58.1996 6.08566 -7.25452 -29.6755 -13.7821 -1.98785e-016 5.96354e-016 6.36111e-015 
